PathFileType	4	(X/Y/Z)	Patient4_TMGait_0pt4_03_left_30.trc.trc
DataRate	CameraRate	NumFrames	NumMarkers	Units	OrigDataRate	OrigDataStartFrame	OrigNumFrames
76.923076923077	76.923076923077	4	33	mm	76.923076923077	124	       141
Frame#	Time	Sacral			L.Shoulder			Chest			R.Shoulder			Neck			R.ASIS			L.ASIS			R.Thigh.Superior			R.Thigh.Lateral			R.Thigh.Inferior			R.Patella			L.Thigh.Superior			L.Thigh.Lateral			L.Thigh.Inferior			L.Patella			L.Shank.Superior			L.Shank.Lateral			L.Shank.Inferior			R.Shank.Superior			R.Shank.Lateral			R.Shank.Inferior			R.Heel			R.Midfoot.Superior			R.Midfoot.Lateral			R.Toe			L.Heel			L.Midfoot.Lateral			L.Midfoot.Superior			L.Toe			L.Elbow			L.Wrist			R.Elbow			R.Wrist			
		X1	Y1	Z1	X2	Y2	Z2	X3	Y3	Z3	X4	Y4	Z4	X5	Y5	Z5	X6	Y6	Z6	X7	Y7	Z7	X8	Y8	Z8	X9	Y9	Z9	X10	Y10	Z10	X11	Y11	Z11	X12	Y12	Z12	X13	Y13	Z13	X14	Y14	Z14	X15	Y15	Z15	X16	Y16	Z16	X17	Y17	Z17	X18	Y18	Z18	X19	Y19	Z19	X20	Y20	Z20	X21	Y21	Z21	X22	Y22	Z22	X23	Y23	Z23	X24	Y24	Z24	X25	Y25	Z25	X26	Y26	Z26	X27	Y27	Z27	X28	Y28	Z28	X29	Y29	Z29	X30	Y30	Z30	X31	Y31	Z31	X32	Y32	Z32	X33	Y33	Z33	

124	41.159000000000	876.003600817008	996.450001918818	508.149622102350	999.588889686047	1423.322616506325	294.861543332762	1137.012592414405	1363.200785255466	431.408214876549	1090.410412698812	1436.645627588085	618.950550441416	1010.373525322604	1487.668185927565	451.529665801090	1120.525605095412	935.376085012861	586.644323247293	1064.424742809336	956.994513076481	317.538715670651	1121.877212532906	723.054218774898	558.281441332327	1029.242912614310	624.577671959936	630.966814859420	1082.761481357099	562.202061337569	544.403002845776	1066.077386265172	475.570811510970	550.989103120509	1144.666802768066	766.281758550213	343.493034064585	1084.791146414651	636.632355174757	274.739591419729	1189.991393947488	577.414910003177	330.631322815592	1211.883808897067	510.016141044722	328.667687895080	1190.985193509693	436.931938014894	319.217277254893	1114.172022025833	312.004673624497	271.039507907295	1195.750227583934	207.111966483998	323.119119684405	1026.855568169952	390.330478679623	562.650854057489	947.677758419508	297.583951981741	632.852062732074	967.719113714970	198.317505185024	566.918831600130	814.573924460669	42.455496825588	548.552861754002	986.633738760784	95.497906153220	575.741555793440	900.465994372668	36.715422350899	620.289652181693	1107.992295173330	44.002490039480	600.452102051290	1099.417957222770	40.167518760255	365.359617318849	1169.922763474981	37.646092255114	282.169098009072	1249.991771959820	105.169104716797	302.450271345951	1378.708793240329	61.202547062905	269.534721308178	880.797183962423	1082.130005943403	225.085873910987	881.119734611390	820.952440449780	212.221344108315	1214.807141739863	1115.020263857241	726.750198688046	1417.107409478896	1206.711362256400	615.694169287641	
125	41.172000000000	877.218255962589	995.518881277705	505.705973127479	999.326945572904	1422.360631186963	292.028919413034	1136.975116139571	1362.942614566546	428.673748084783	1089.936293907141	1436.156205632099	616.240297216483	1009.944604276619	1486.935616706109	448.666428376246	1122.010602448222	934.746535174246	584.406274637611	1065.793491526850	956.257874154261	315.489426183038	1122.642300838502	722.026627408513	556.532839940524	1029.120186612971	623.973953297271	629.082819826836	1082.375618129955	561.046441271637	542.822683993428	1064.968802008172	474.198570259270	549.408914359940	1145.648421025977	764.231318853117	341.599915436811	1083.966117018744	635.044185111346	273.884795182457	1189.024579387876	575.555944858277	330.006389023927	1209.766598672145	507.421821262708	328.521246105822	1188.367770531623	434.152502305937	319.077742261294	1110.015325642026	309.986587147297	271.223883863979	1189.920167918054	204.249201844244	324.007480320706	1024.811132323609	389.477917688185	561.325970131210	944.883664140175	297.743487643048	632.120359707622	963.689166582510	198.048483645888	566.460711087989	809.399292700493	42.814104344917	548.727750297730	981.609277134395	95.476008040678	575.755560646754	895.334801036463	36.773282420468	620.334345702989	1102.899483534173	43.582198504498	600.535611238904	1090.802069529858	39.140950420569	366.382065335740	1161.065453331166	36.301807085078	282.913850955737	1242.400295754708	102.067763195471	303.958421794073	1370.535153428119	56.073345946003	270.321070856580	882.818473073048	1080.453050060786	221.386564837793	885.649226479353	819.275773673399	207.474961257591	1214.544677064529	1114.243233057955	724.056078931859	1416.524821958396	1206.045319986459	612.115683206696	
126	41.185000000000	878.315165237183	994.791124156787	503.235257573884	999.183714708108	1421.525332946419	289.100056915250	1137.038224606688	1362.751288644852	425.840850243218	1089.635928664117	1435.822790359125	613.417580088200	1009.662098204728	1486.352174921165	445.684299196970	1123.375281165215	934.187262979758	581.972749253484	1066.919047101149	955.783657036750	313.270883870207	1123.499001028682	721.139267479462	554.504250998628	1029.301164668106	623.417352029089	626.986612403971	1082.359725762809	559.973375946544	541.020085440908	1064.359901835896	472.770476979896	547.695792881807	1146.601936000822	762.684510849797	339.638695860170	1083.502363110399	633.987131757538	272.801467188310	1188.378401147542	574.268998271112	329.249476838164	1208.013373153949	505.455547830686	328.210312560179	1186.278949577366	431.987885041516	318.721866844315	1106.745624802887	308.492755460161	270.962715452871	1184.946324767818	202.041324708387	324.615076635319	1023.113753336549	388.640204136308	559.876485859069	942.349493980188	298.030854424057	631.286733278957	959.829776261098	197.874055987666	565.975443351184	804.247157576609	43.404683456176	548.951149744963	976.673995508727	95.487689938414	575.793401934910	890.249528229697	36.917736130197	620.395602202552	1097.867167873881	43.072635332777	600.632752688899	1083.306301514422	38.443494063615	367.023425167798	1153.453532327400	35.477901243115	283.390535986573	1235.732954574733	99.829864552020	305.208805173632	1363.444324119406	52.288752963890	271.069463755157	885.382590154778	1078.764648996088	217.376263769351	891.076120469602	817.615981815938	202.341815905301	1213.821176206895	1113.394193869001	721.513538296109	1416.232477033578	1204.097371698989	608.928106029537	
127	41.198000000000	879.269044159597	994.297929819353	500.738183808298	999.134779602908	1420.867770459701	286.115463855547	1137.188012430218	1362.640292253975	422.923090469841	1089.533703083398	1435.670584133880	610.495395319372	1009.522393480432	1485.948622826385	442.617546590070	1124.571731915253	933.741815491930	579.331520349264	1067.767379071715	955.580487283013	310.838221293225	1124.366911932809	720.439746310916	552.201934790318	1029.732427409259	622.949324492179	624.705598750040	1082.693133151209	559.031103221267	539.036341759550	1064.270328144913	471.317874868573	545.930767979661	1147.537589877204	761.746884413323	337.582455706918	1083.459019913921	633.472952484713	271.477661631873	1188.092282616221	573.553100769845	328.274816514548	1206.661050703701	504.106222283541	327.667725690679	1184.718260241719	430.417972225118	318.128937708772	1104.292405876222	307.524155733660	270.270925401031	1180.748290423258	200.460189785937	324.930962124648	1021.774259337760	387.851276445165	558.362582899729	940.056895399918	298.485059814325	630.376175899145	956.157845769402	197.834824621213	565.493281293792	799.128106585782	44.302131159138	549.219086373088	971.849860915117	95.546260581570	575.865828694784	885.214985406629	37.189734218147	620.475883416130	1092.892673768526	42.487488849696	600.741182866563	1076.845791424336	38.047303846283	367.342725770619	1146.972885818308	35.086811300361	283.635438225878	1229.896101150785	98.388712077491	306.155993241014	1357.329612878359	49.757516560303	271.707730634112	888.439705222624	1077.145481063338	213.088000035351	897.382951745081	816.068523462969	196.871357709303	1212.662592416424	1112.512754305449	719.093056338755	1416.256439299806	1200.836570452383	606.129747291564	
